<?xml version="1.0" standalone="no"?>
<!DOCTYPE svg PUBLIC "-//W3C//DTD SVG 20010904//EN"
 "http://www.w3.org/TR/2001/REC-SVG-20010904/DTD/svg10.dtd">
<svg version="1.0" xmlns="http://www.w3.org/2000/svg"
 width="1024.000000pt" height="1024.000000pt" viewBox="0 0 1024.000000 1024.000000"
 preserveAspectRatio="xMidYMid meet">
<metadata>
Created by potrace 1.11, written by Peter Selinger 2001-2013
</metadata>
<g transform="translate(0.000000,1024.000000) scale(0.100000,-0.100000)"
fill="#000000" stroke="none">
<path d="M5100 10219 c0 -5 -4 -9 -9 -9 -6 0 -60 -29 -121 -65 -61 -36 -115
-65 -121 -65 -5 0 -9 -4 -9 -10 0 -5 -4 -10 -10 -10 -5 0 -31 -13 -58 -29 -26
-15 -68 -40 -93 -53 -24 -14 -82 -47 -129 -74 -47 -27 -87 -52 -88 -56 -2 -5
-8 -6 -13 -2 -5 3 -9 1 -9 -4 0 -6 -11 -13 -25 -16 -14 -4 -25 -11 -25 -16 0
-6 -9 -10 -20 -10 -11 0 -20 -3 -20 -8 0 -4 -21 -18 -47 -32 -27 -13 -50 -27
-53 -30 -3 -3 -18 -12 -35 -20 -16 -8 -32 -17 -35 -20 -6 -6 -86 -50 -117 -65
-13 -5 -23 -13 -23 -17 0 -5 -4 -8 -10 -8 -5 0 -44 -20 -86 -45 -41 -25 -78
-45 -81 -45 -3 0 -17 -8 -31 -19 -15 -10 -49 -31 -77 -45 -27 -15 -63 -36 -80
-47 -16 -10 -37 -22 -45 -26 -8 -3 -32 -17 -52 -30 -21 -13 -38 -21 -38 -18 0
3 -6 1 -12 -5 -20 -17 -178 -110 -187 -110 -4 0 -21 -11 -36 -24 -16 -14 -32
-23 -36 -20 -4 2 -14 -3 -22 -11 -9 -8 -18 -15 -21 -15 -4 0 -40 -20 -80 -45
-41 -25 -79 -45 -85 -45 -5 0 -16 -6 -23 -13 -7 -7 -53 -36 -103 -63 -49 -28
-112 -63 -140 -79 -27 -15 -55 -32 -62 -37 -7 -5 -27 -18 -45 -27 -72 -38
-153 -85 -158 -90 -3 -4 -24 -15 -47 -26 -24 -11 -43 -23 -43 -27 0 -5 -6 -8
-14 -8 -7 0 -19 -7 -26 -15 -7 -9 -15 -13 -18 -11 -3 3 -17 -3 -31 -13 -14
-10 -46 -29 -71 -43 -98 -54 -265 -152 -270 -157 -3 -3 -27 -17 -55 -31 -27
-13 -52 -27 -55 -30 -3 -4 -12 -9 -20 -13 -8 -4 -37 -20 -65 -37 -27 -17 -62
-35 -77 -41 -16 -6 -28 -14 -28 -18 0 -4 -16 -13 -35 -21 -19 -8 -35 -17 -35
-22 0 -4 -5 -8 -11 -8 -6 0 -44 -20 -84 -45 -41 -25 -102 -59 -135 -76 -33
-18 -60 -37 -60 -42 0 -6 -3 -7 -7 -4 -3 4 -12 2 -18 -3 -17 -14 -97 -59 -117
-66 -10 -4 -18 -10 -18 -15 0 -5 -9 -9 -20 -9 -11 0 -20 -4 -20 -9 0 -5 -17
-17 -38 -27 -21 -11 -125 -68 -230 -129 l-192 -110 0 -2561 0 -2560 37 -20
c20 -10 52 -27 72 -38 20 -10 38 -21 41 -25 3 -3 16 -12 30 -19 14 -7 39 -20
55 -30 17 -10 50 -30 75 -44 25 -14 80 -46 123 -72 43 -25 81 -46 84 -46 2 0
23 -13 46 -29 23 -16 47 -30 52 -31 6 -2 19 -8 30 -15 62 -38 147 -85 156 -85
5 0 9 -4 9 -10 0 -5 5 -10 10 -10 6 0 27 -11 48 -23 20 -13 69 -41 107 -62 39
-21 72 -41 75 -44 5 -7 81 -49 117 -66 13 -5 23 -13 23 -17 0 -5 5 -8 10 -8 6
0 40 -18 76 -40 36 -22 68 -40 70 -40 2 0 28 -16 58 -35 29 -19 56 -31 60 -28
3 4 6 1 6 -5 0 -7 7 -12 15 -12 8 0 15 -5 15 -10 0 -6 3 -9 7 -8 5 1 19 -5 33
-14 31 -20 206 -120 280 -161 30 -16 60 -34 67 -39 7 -5 27 -17 45 -27 43 -22
82 -45 88 -51 4 -4 39 -24 95 -54 11 -6 23 -15 27 -21 4 -5 8 -6 8 -2 0 4 20
-6 44 -23 25 -16 47 -30 50 -30 3 0 43 -23 89 -50 46 -28 89 -50 95 -50 7 0
12 -4 12 -10 0 -5 7 -10 15 -10 8 0 15 -4 15 -10 0 -5 5 -10 10 -10 14 0 223
-121 232 -135 4 -5 8 -6 8 -2 0 4 25 -8 55 -28 31 -19 58 -35 61 -35 3 0 18
-8 32 -19 15 -10 51 -31 80 -47 29 -16 68 -38 86 -49 37 -22 112 -65 191 -110
28 -15 67 -39 87 -52 21 -12 39 -23 42 -23 2 0 34 -18 70 -40 36 -22 70 -40
76 -40 5 0 10 -4 10 -8 0 -4 12 -13 28 -20 40 -18 140 -76 154 -90 7 -7 16
-12 21 -12 5 0 43 -20 84 -45 40 -25 75 -45 77 -45 2 0 34 -18 70 -40 36 -22
70 -40 76 -40 5 0 10 -3 10 -7 0 -5 10 -13 23 -19 27 -13 74 -40 242 -137
l129 -76 51 27 c27 15 52 30 55 33 3 4 15 9 28 13 12 4 22 11 22 16 0 4 8 10
18 13 9 3 40 20 67 36 28 17 64 37 80 46 17 8 53 29 80 45 28 17 57 34 65 37
8 4 17 9 20 12 3 4 23 15 45 26 22 11 42 23 45 26 3 3 30 19 60 36 54 29 116
65 155 91 11 6 27 15 35 19 8 4 51 28 95 54 44 26 98 57 120 69 22 13 54 31
70 42 17 10 38 21 48 24 9 4 17 11 17 16 0 5 4 7 9 4 5 -3 14 1 21 9 7 8 16
15 20 15 4 0 81 43 170 95 89 52 164 95 167 95 2 0 29 16 59 35 30 19 59 35
64 35 6 0 10 5 10 10 0 6 9 10 19 10 11 0 21 4 23 9 2 5 31 24 65 43 119 64
283 160 289 169 3 5 10 7 15 4 5 -4 9 -2 9 4 0 5 9 12 19 16 11 3 65 33 119
66 55 32 105 59 111 59 6 0 11 4 11 8 0 4 26 21 58 37 31 16 73 40 92 53 19
13 44 28 55 33 11 5 41 21 66 37 26 15 84 49 130 75 46 26 107 61 134 78 28
16 61 35 75 42 14 6 27 14 30 18 3 3 12 8 20 12 8 3 38 20 65 36 72 43 142 83
210 121 33 18 71 41 85 50 14 9 50 31 80 48 30 16 123 69 205 117 83 49 166
97 185 107 19 11 58 32 85 49 28 16 69 39 93 51 23 12 42 26 42 30 0 4 9 8 20
8 11 0 20 4 20 9 0 5 10 13 23 17 12 3 29 12 37 19 8 7 47 30 85 50 39 21 72
41 75 44 3 3 21 15 40 25 19 11 37 23 40 27 4 5 5 5035 1 5099 -1 9 -48 42
-106 75 -58 33 -105 64 -105 68 0 5 -4 6 -8 3 -5 -3 -24 5 -43 18 -19 13 -56
35 -84 50 -27 15 -59 32 -70 39 -39 24 -91 54 -135 79 -25 14 -62 35 -82 47
-21 11 -55 31 -75 42 -21 12 -50 30 -65 41 -16 11 -28 16 -28 12 0 -4 -8 0
-17 8 -10 8 -25 18 -33 22 -8 3 -44 24 -80 46 -36 22 -77 45 -92 51 -16 6 -28
15 -28 20 0 5 -5 9 -10 9 -6 0 -54 25 -108 56 -168 98 -415 240 -462 266 -25
14 -74 43 -110 64 -92 54 -141 82 -170 97 -14 6 -31 17 -38 24 -7 7 -18 13
-24 13 -6 0 -19 6 -27 14 -9 7 -41 27 -71 43 -64 35 -105 58 -178 102 -29 17
-57 31 -62 31 -6 0 -10 5 -10 10 0 6 -4 10 -9 10 -5 0 -38 16 -73 36 -34 21
-74 43 -88 51 -14 8 -41 23 -60 35 -19 11 -60 34 -90 51 -30 17 -57 33 -60 36
-3 3 -23 15 -45 26 -22 11 -43 24 -47 30 -5 7 -8 7 -8 0 0 -6 -3 -6 -8 1 -4 6
-32 24 -62 40 -52 29 -221 127 -285 165 -16 10 -43 25 -60 34 -16 8 -39 20
-50 27 -59 37 -145 88 -149 88 -2 0 -42 23 -89 50 -47 28 -90 50 -96 50 -6 0
-11 5 -11 10 0 6 -4 10 -9 10 -5 0 -39 18 -75 40 -36 22 -70 40 -75 40 -5 0
-14 7 -21 15 -7 8 -16 12 -21 9 -5 -3 -9 -2 -9 3 0 4 -21 19 -47 33 -27 13
-50 27 -53 30 -3 3 -14 10 -25 16 -115 62 -142 79 -157 92 -10 8 -18 12 -18 9
0 -3 -28 12 -62 34 -35 21 -75 44 -90 50 -16 6 -28 15 -28 20 0 5 -5 9 -11 9
-6 0 -31 12 -57 27 -50 30 -72 36 -72 22z"/>
</g>
</svg>
