<?xml version="1.0" encoding="UTF-8" standalone="no"?>
<!DOCTYPE svg PUBLIC "-//W3C//DTD SVG 1.1//EN" "http://www.w3.org/Graphics/SVG/1.1/DTD/svg11.dtd">
<svg width="100%" height="100%" viewBox="0 0 1740 512" version="1.1" xmlns="http://www.w3.org/2000/svg" xmlns:xlink="http://www.w3.org/1999/xlink" xml:space="preserve" style="fill-rule:evenodd;clip-rule:evenodd;stroke-linejoin:round;stroke-miterlimit:2;">
    <g id="Canvas" transform="matrix(0.710125,0,0,0.710125,-2276.47,-1217.86)">
        <g id="http4s-logo">
            <g transform="matrix(1,0,0,1,5032,1715.75)">
                <g id="Top">
                    <path id="path0_fill" d="M623.5,179.25L311.769,0L0,179.25L311.769,360L623.5,179.25Z" style="fill:rgb(255,143,0);fill-rule:nonzero;"/>
                </g>
            </g>
            <g transform="matrix(1,0,0,1,5343.77,1895)">
                <g id="Right">
                    <path id="path1_fill" d="M311.769,360.25L311.731,0L0,180.25L0,540.25L311.769,360.25Z" style="fill:rgb(227,131,19);fill-rule:nonzero;"/>
                </g>
            </g>
            <g transform="matrix(-1,0,0,1,5343.77,1895)">
                <g id="Left">
                    <path id="path2_fill" d="M311.769,360.25L311.769,0L0,180.25L0,540.25L311.769,360.25Z" style="fill:rgb(255,157,29);fill-rule:nonzero;"/>
                </g>
            </g>
            <g transform="matrix(-1,0,0,1,5616.57,1962.75)">
                <g id="S">
                    <path id="path3_fill" d="M233.827,405L233.827,315L155.885,270L155.885,90L0,0L0,90L77.942,135L77.942,315L233.827,405Z" style="fill:white;fill-rule:nonzero;"/>
                </g>
            </g>
            <g transform="matrix(1,0,0,1,5070.97,1962.75)">
                <g id="_4">
                    <path id="path4_fill" d="M233.827,135L155.885,90L155.885,180L77.942,135L77.942,45L0,0L0,180L77.942,225L155.885,270L155.885,360L233.827,405L233.827,135Z" style="fill:white;fill-rule:nonzero;"/>
                </g>
            </g>
            <g transform="matrix(1,0,0,1,5109.94,1760.25)">
                <g id="H">
                    <path id="path5_fill" d="M155.885,45L0,135L77.942,180L155.885,135L233.827,180L155.885,225L233.827,270L467.654,135L389.711,90L311.769,135L233.827,90L311.769,45L233.827,0L155.885,45Z" style="fill:white;fill-rule:nonzero;"/>
                </g>
            </g>
        </g>
        <g transform="matrix(1.28374,0,0,1.28374,3088.77,2088.85)" style="fill:#5b7980;fill-rule:nonzero;">
            <g transform="matrix(1,0,0,1,5,0)">
                <path d="M87.159,-262.881L136.459,-262.881L136.459,-135.281C148.059,-143.015 162.559,-146.881 179.959,-146.881L195.039,-146.881C226.359,-146.881 249.656,-139.535 264.929,-124.841C280.203,-110.148 287.839,-86.561 287.839,-54.081L287.839,143.119L238.539,143.119L238.539,-65.681C238.539,-77.281 235.156,-86.465 228.389,-93.231C221.623,-99.998 212.439,-103.381 200.839,-103.381L174.159,-103.381C161.786,-103.381 152.409,-100.191 146.029,-93.811C139.649,-87.431 136.459,-80.568 136.459,-73.221L136.459,143.119L87.159,143.119L87.159,-262.881Z" style="fill-rule:nonzero;"/>
            </g>
            <g transform="matrix(1,0,0,1,-17,0)">
                <path d="M441.539,143.119C421.819,143.119 406.739,136.739 396.299,123.979C385.859,111.219 380.639,94.399 380.639,73.519L380.639,-103.381L342.939,-103.381L342.939,-146.881L380.639,-146.881L380.639,-216.481L429.939,-216.481L429.939,-146.881L497.219,-146.881L497.219,-103.381L429.939,-103.381L429.939,76.419C429.939,84.925 432.066,90.919 436.319,94.399C440.573,97.879 447.146,99.619 456.039,99.619L497.219,99.619L497.219,143.119L441.539,143.119Z" style="fill-rule:nonzero;"/>
            </g>
            <g transform="matrix(1,0,0,1,-6,0)">
                <path d="M621.919,143.119C602.199,143.119 587.119,136.739 576.679,123.979C566.239,111.219 561.019,94.399 561.019,73.519L561.019,-103.381L523.319,-103.381L523.319,-146.881L561.019,-146.881L561.019,-216.481L610.319,-216.481L610.319,-146.881L677.599,-146.881L677.599,-103.381L610.319,-103.381L610.319,76.419C610.319,84.925 612.446,90.919 616.699,94.399C620.953,97.879 627.526,99.619 636.419,99.619L677.599,99.619L677.599,143.119L621.919,143.119Z" style="fill-rule:nonzero;"/>
            </g>
            <g transform="matrix(1,0,0,1,-21,0)">
                <path d="M738.499,-146.881L784.899,-146.881L784.899,-132.961C796.886,-142.241 812.353,-146.881 831.299,-146.881L840.579,-146.881C874.606,-146.881 899.546,-139.631 915.399,-125.131C931.253,-110.631 939.179,-86.948 939.179,-54.081L939.179,50.319C939.179,82.799 931.156,106.385 915.109,121.079C899.063,135.772 874.219,143.119 840.579,143.119L787.799,143.119L787.799,241.719L738.499,241.719L738.499,-146.881ZM825.499,-103.381C812.739,-103.381 803.266,-99.998 797.079,-93.231C790.893,-86.465 787.799,-79.215 787.799,-71.481L787.799,99.619L846.379,99.619C860.686,99.619 871.513,96.332 878.859,89.759C886.206,83.185 889.879,73.905 889.879,61.919L889.879,-65.681C889.879,-77.668 886.206,-86.948 878.859,-93.521C871.513,-100.095 860.686,-103.381 846.379,-103.381L825.499,-103.381Z" style="fill-rule:nonzero;"/>
            </g>
            <g transform="matrix(1,0,0,1,-57,0)">
                <path d="M1183.94,52.639L1183.94,143.119L1134.64,143.119L1134.64,52.639L1019.8,52.639L1019.8,2.759L1077.22,-262.881L1124.2,-262.881L1069.68,10.299L1134.64,10.299L1134.64,-121.941L1183.94,-121.941L1183.94,10.299L1224.54,10.299L1224.54,52.639L1183.94,52.639Z" style="fill-rule:nonzero;"/>
            </g>
            <g transform="matrix(1,0,0,1,-80,0)">
                <path d="M1451.9,70.619C1451.9,94.979 1444.46,113.152 1429.57,125.139C1414.68,137.125 1393.13,143.119 1364.9,143.119L1290.08,143.119L1290.08,99.619L1370.7,99.619C1381.14,99.619 1389.07,97.395 1394.48,92.949C1399.89,88.502 1402.6,82.025 1402.6,73.519L1402.6,42.779C1402.6,25.379 1394.29,16.679 1377.66,16.679L1367.8,16.679C1340.73,16.679 1320.53,10.782 1307.19,-1.011C1293.85,-12.805 1287.18,-31.461 1287.18,-56.981L1287.18,-73.801C1287.18,-99.708 1294.53,-118.365 1309.22,-129.771C1323.91,-141.178 1345.57,-146.881 1374.18,-146.881L1440.3,-146.881L1440.3,-103.381L1368.38,-103.381C1358.71,-103.381 1350.98,-101.158 1345.18,-96.711C1339.38,-92.265 1336.48,-85.788 1336.48,-77.281L1336.48,-56.401C1336.48,-47.508 1339.09,-40.935 1344.31,-36.681C1349.53,-32.428 1356.2,-30.301 1364.32,-30.301L1372.44,-30.301C1398.35,-30.301 1418.07,-24.018 1431.6,-11.451C1445.13,1.115 1451.9,19.772 1451.9,44.519L1451.9,70.619Z" style="fill-rule:nonzero;"/>
            </g>
        </g>
    </g>
</svg>
